<svg width="11" height="12" viewBox="0 0 11 12" fill="none" xmlns="http://www.w3.org/2000/svg">
<path d="M5.96863 0.589355H5.03113C4.94779 0.589355 4.90613 0.631022 4.90613 0.714355V5.6206H0.250244C0.166911 5.6206 0.125244 5.66227 0.125244 5.74561V6.68311C0.125244 6.76644 0.166911 6.80811 0.250244 6.80811H4.90613V11.7144C4.90613 11.7977 4.94779 11.8394 5.03113 11.8394H5.96863C6.05196 11.8394 6.09363 11.7977 6.09363 11.7144V6.80811H10.7502C10.8336 6.80811 10.8752 6.76644 10.8752 6.68311V5.74561C10.8752 5.66227 10.8336 5.6206 10.7502 5.6206H6.09363V0.714355C6.09363 0.631022 6.05196 0.589355 5.96863 0.589355Z" fill="black" fill-opacity="0.85"/>
</svg>
