<svg width="15" height="14" viewBox="0 0 15 14" fill="none" xmlns="http://www.w3.org/2000/svg">
<path d="M1.11098 2.21684H9.18765C9.2593 2.21684 9.31792 2.15408 9.31792 2.07739V1.10124C9.31792 1.02454 9.2593 0.961792 9.18765 0.961792H1.11098C1.03933 0.961792 0.980713 1.02454 0.980713 1.10124V2.07739C0.980713 2.15408 1.03933 2.21684 1.11098 2.21684ZM1.11098 9.60765H9.18765C9.2593 9.60765 9.31792 9.54489 9.31792 9.4682V8.49205C9.31792 8.41535 9.2593 8.3526 9.18765 8.3526H1.11098C1.03933 8.3526 0.980713 8.41535 0.980713 8.49205V9.4682C0.980713 9.54489 1.03933 9.60765 1.11098 9.60765ZM13.8773 12.048H1.11098C1.03933 12.048 0.980713 12.1108 0.980713 12.1875V13.1636C0.980713 13.2403 1.03933 13.3031 1.11098 13.3031H13.8773C13.949 13.3031 14.0076 13.2403 14.0076 13.1636V12.1875C14.0076 12.1108 13.949 12.048 13.8773 12.048ZM13.8773 4.6572H1.11098C1.03933 4.6572 0.980713 4.71995 0.980713 4.79665V5.77279C0.980713 5.84949 1.03933 5.91224 1.11098 5.91224H13.8773C13.949 5.91224 14.0076 5.84949 14.0076 5.77279V4.79665C14.0076 4.71995 13.949 4.6572 13.8773 4.6572Z" fill="black" fill-opacity="0.85"/>
</svg>
