<svg width="14" height="14" viewBox="0 0 14 14" fill="none" xmlns="http://www.w3.org/2000/svg">
<path d="M13.7005 0.961792H5.62384C5.55219 0.961792 5.49357 1.02454 5.49357 1.10124V2.07739C5.49357 2.15408 5.55219 2.21684 5.62384 2.21684H13.7005C13.7722 2.21684 13.8308 2.15408 13.8308 2.07739V1.10124C13.8308 1.02454 13.7722 0.961792 13.7005 0.961792ZM13.7005 8.3526H5.62384C5.55219 8.3526 5.49357 8.41535 5.49357 8.49205V9.4682C5.49357 9.54489 5.55219 9.60765 5.62384 9.60765H13.7005C13.7722 9.60765 13.8308 9.54489 13.8308 9.4682V8.49205C13.8308 8.41535 13.7722 8.3526 13.7005 8.3526ZM13.7005 12.048H0.934163C0.862515 12.048 0.803894 12.1108 0.803894 12.1875V13.1636C0.803894 13.2403 0.862515 13.3031 0.934163 13.3031H13.7005C13.7722 13.3031 13.8308 13.2403 13.8308 13.1636V12.1875C13.8308 12.1108 13.7722 12.048 13.7005 12.048ZM13.7005 4.6572H0.934163C0.862515 4.6572 0.803894 4.71995 0.803894 4.79665V5.77279C0.803894 5.84949 0.862515 5.91224 0.934163 5.91224H13.7005C13.7722 5.91224 13.8308 5.84949 13.8308 5.77279V4.79665C13.8308 4.71995 13.7722 4.6572 13.7005 4.6572Z" fill="black" fill-opacity="0.85"/>
</svg>
