<svg width="13" height="14" viewBox="0 0 13 14" fill="none" xmlns="http://www.w3.org/2000/svg">
<path d="M2.57995 2.21684H10.2315C10.2994 2.21684 10.3549 2.15408 10.3549 2.07739V1.10124C10.3549 1.02454 10.2994 0.961792 10.2315 0.961792H2.57995C2.51207 0.961792 2.45653 1.02454 2.45653 1.10124V2.07739C2.45653 2.15408 2.51207 2.21684 2.57995 2.21684ZM10.2315 9.60765C10.2994 9.60765 10.3549 9.54489 10.3549 9.4682V8.49205C10.3549 8.41535 10.2994 8.3526 10.2315 8.3526H2.57995C2.51207 8.3526 2.45653 8.41535 2.45653 8.49205V9.4682C2.45653 9.54489 2.51207 9.60765 2.57995 9.60765H10.2315ZM12.453 12.048H0.35852C0.290643 12.048 0.235107 12.1108 0.235107 12.1875V13.1636C0.235107 13.2403 0.290643 13.3031 0.35852 13.3031H12.453C12.5208 13.3031 12.5764 13.2403 12.5764 13.1636V12.1875C12.5764 12.1108 12.5208 12.048 12.453 12.048ZM12.453 4.6572H0.35852C0.290643 4.6572 0.235107 4.71995 0.235107 4.79665V5.77279C0.235107 5.84949 0.290643 5.91224 0.35852 5.91224H12.453C12.5208 5.91224 12.5764 5.84949 12.5764 5.77279V4.79665C12.5764 4.71995 12.5208 4.6572 12.453 4.6572Z" fill="black" fill-opacity="0.85"/>
</svg>
