<svg width="10" height="14" viewBox="0 0 10 14" fill="none" xmlns="http://www.w3.org/2000/svg">
<path d="M8.40014 6.65286C8.93493 6.06598 9.26281 5.27285 9.26281 4.40091V4.22988C9.26281 2.42564 7.86058 0.961792 6.13207 0.961792H1.42243C1.1821 0.961792 0.986328 1.16804 0.986328 1.42124V12.8084C0.986328 13.0817 1.19642 13.3031 1.45586 13.3031H6.52839C8.39059 13.3031 9.89946 11.7235 9.89946 9.77338V9.58893C9.89946 8.36487 9.30419 7.28669 8.40014 6.65286ZM2.51429 2.57152H6.09069C6.99951 2.57152 7.73484 3.31602 7.73484 4.23658V4.39588C7.73484 5.31477 6.99792 6.06095 6.09069 6.06095H2.51429V2.57152ZM8.34921 9.77171C8.34921 10.8264 7.52634 11.6816 6.51088 11.6816H2.51429V7.68074H6.51088C7.52634 7.68074 8.34921 8.5359 8.34921 9.59061V9.77171Z" fill="black" fill-opacity="0.85"/>
</svg>
