<svg width="14" height="15" viewBox="0 0 14 15" fill="none" xmlns="http://www.w3.org/2000/svg">
<g clip-path="url(#clip0_666_2648)">
<path d="M12.7502 2.74976H10.1252V1.74976C10.1252 1.68101 10.069 1.62476 10.0002 1.62476H9.12524C9.05649 1.62476 9.00024 1.68101 9.00024 1.74976V2.74976H5.00024V1.74976C5.00024 1.68101 4.94399 1.62476 4.87524 1.62476H4.00024C3.93149 1.62476 3.87524 1.68101 3.87524 1.74976V2.74976H1.25024C0.973682 2.74976 0.750244 2.97319 0.750244 3.24976V13.6248C0.750244 13.9013 0.973682 14.1248 1.25024 14.1248H12.7502C13.0268 14.1248 13.2502 13.9013 13.2502 13.6248V3.24976C13.2502 2.97319 13.0268 2.74976 12.7502 2.74976ZM12.1252 12.9998H1.87524V7.06226H12.1252V12.9998ZM1.87524 5.99976V3.87476H3.87524V4.62476C3.87524 4.69351 3.93149 4.74976 4.00024 4.74976H4.87524C4.94399 4.74976 5.00024 4.69351 5.00024 4.62476V3.87476H9.00024V4.62476C9.00024 4.69351 9.05649 4.74976 9.12524 4.74976H10.0002C10.069 4.74976 10.1252 4.69351 10.1252 4.62476V3.87476H12.1252V5.99976H1.87524Z" fill="black" fill-opacity="0.25"/>
</g>
<defs>
<clipPath id="clip0_666_2648">
<rect width="14" height="14" fill="white" transform="translate(0 0.872803)"/>
</clipPath>
</defs>
</svg>
