<svg width="24" height="19" viewBox="0 0 24 19" fill="none" xmlns="http://www.w3.org/2000/svg">
<path d="M21.3808 14.581H2.61915L0.679244 17.2469C0.238389 17.8527 0.661066 18.7136 1.39932 18.7136H22.6007C23.339 18.7136 23.7616 17.8527 23.3208 17.2469L21.3808 14.581Z" fill="black"/>
<path d="M9.24866 10.8906L8.68495 13.2034H15.315L14.7513 10.8906C14.5486 10.0594 13.8224 9.47888 12.985 9.47888H11.0148C10.1775 9.47883 9.45127 10.0594 9.24866 10.8906Z" fill="black"/>
<path d="M12 8.10137C12.7299 8.10137 13.3216 7.49605 13.3216 6.74935C13.3216 6.00265 12.7299 5.39734 12 5.39734C11.2701 5.39734 10.6784 6.00265 10.6784 6.74935C10.6784 7.49605 11.2701 8.10137 12 8.10137Z" fill="black"/>
<path d="M7.94212 10.5574C8.19388 9.52438 8.91077 8.71424 9.83068 8.33551C9.51716 7.88808 9.33188 7.3406 9.33188 6.74931C9.33188 5.2442 10.5288 4.01974 12 4.01974C13.4712 4.01974 14.6681 5.24424 14.6681 6.74931C14.6681 7.34055 14.4828 7.88808 14.1693 8.33551C15.0892 8.71424 15.8061 9.52438 16.0578 10.5574L16.7027 13.2034H21.3808V2.55035C21.3808 1.53597 20.5769 0.713623 19.5854 0.713623H4.41448C3.42293 0.713623 2.6191 1.53597 2.6191 2.55035V13.2034H7.30194L7.94212 10.5574Z" fill="black"/>
</svg>
