<svg width="24" height="25" viewBox="0 0 24 25" fill="none" xmlns="http://www.w3.org/2000/svg">
<path d="M7.92815 3.22178H7.71387C7.83173 3.22178 7.92815 3.12536 7.92815 3.0075V3.22178H16.071V3.0075C16.071 3.12536 16.1674 3.22178 16.2853 3.22178H16.071V5.15036H17.9996V3.0075C17.9996 2.06196 17.2308 1.29321 16.2853 1.29321H7.71387C6.76833 1.29321 5.99958 2.06196 5.99958 3.0075V5.15036H7.92815V3.22178ZM21.4282 5.15036H2.57101C2.0969 5.15036 1.71387 5.53339 1.71387 6.0075V6.86464C1.71387 6.9825 1.8103 7.07893 1.92815 7.07893H3.54601L4.20762 21.0879C4.25048 22.0013 5.00583 22.7218 5.91923 22.7218H18.0799C18.996 22.7218 19.7487 22.0039 19.7916 21.0879L20.4532 7.07893H22.071C22.1889 7.07893 22.2853 6.9825 22.2853 6.86464V6.0075C22.2853 5.53339 21.9023 5.15036 21.4282 5.15036ZM17.8737 20.7932H6.12548L5.47726 7.07893H18.5219L17.8737 20.7932Z" fill="red" fill-opacity="0.85"/>
</svg>
