<svg width="25" height="25" viewBox="0 0 25 25" fill="none" xmlns="http://www.w3.org/2000/svg">
<path d="M5.29873 19.21C5.35873 19.21 5.41873 19.204 5.47873 19.195L10.5247 18.31C10.5847 18.298 10.6417 18.271 10.6837 18.226L23.4007 5.50901C23.4285 5.48126 23.4506 5.44829 23.4657 5.412C23.4807 5.37571 23.4885 5.3368 23.4885 5.29751C23.4885 5.25822 23.4807 5.21931 23.4657 5.18302C23.4506 5.14673 23.4285 5.11376 23.4007 5.08601L18.4147 0.0970098C18.3577 0.0400098 18.2827 0.0100098 18.2017 0.0100098C18.1207 0.0100098 18.0457 0.0400098 17.9887 0.0970098L5.27173 12.814C5.22673 12.859 5.19973 12.913 5.18773 12.973L4.30273 18.019C4.27355 18.1797 4.28398 18.3451 4.33312 18.5009C4.38225 18.6567 4.46862 18.7981 4.58473 18.913C4.78273 19.105 5.03173 19.21 5.29873 19.21ZM7.32073 13.978L18.2017 3.10001L20.4007 5.29901L9.51973 16.177L6.85273 16.648L7.32073 13.978ZM23.9677 21.73H1.88773C1.35673 21.73 0.927734 22.159 0.927734 22.69V23.77C0.927734 23.902 1.03573 24.01 1.16773 24.01H24.6877C24.8197 24.01 24.9277 23.902 24.9277 23.77V22.69C24.9277 22.159 24.4987 21.73 23.9677 21.73Z" fill="#BFBFBF" fill-opacity="0.85"/>
</svg>
