<svg width="10" height="8" viewBox="0 0 10 8" fill="none" xmlns="http://www.w3.org/2000/svg">
<path d="M9.6637 1.07632V6.62882C9.6637 6.94392 9.42314 7.18407 9.10751 7.18407H8.55132V2.14489L5.21417 4.53802L1.87703 2.14489V7.18407H1.32084C1.0052 7.18407 0.764648 6.94392 0.764648 6.62882V1.07632C0.764648 0.918625 0.824161 0.779812 0.923997 0.681533C0.975993 0.629597 1.03792 0.588628 1.10609 0.561061C1.17427 0.533495 1.24729 0.519893 1.32084 0.521066H1.50633L5.21417 3.20487L8.92202 0.521066H9.10751C9.26546 0.521066 9.40451 0.580478 9.50435 0.681533C9.60418 0.779812 9.6637 0.918625 9.6637 1.07632Z" fill="#3D0F00"/>
</svg>
