<svg width="20" height="20" viewBox="0 0 20 20" fill="none" xmlns="http://www.w3.org/2000/svg">
<path d="M3.73121 2.76033L4.9071 1.58444C4.93543 1.55598 4.95519 1.52013 4.96416 1.48099C4.97312 1.44185 4.97092 1.40098 4.9578 1.36302C4.94469 1.32507 4.92118 1.29156 4.88996 1.2663C4.85875 1.24104 4.82107 1.22506 4.78121 1.22015L0.490138 0.713904C0.353531 0.697832 0.235674 0.813011 0.251746 0.952297L0.757996 5.24337C0.779424 5.42015 0.996389 5.49515 1.12228 5.36926L2.29282 4.19873L5.87407 7.7773C5.9571 7.86033 6.09371 7.86033 6.17675 7.7773L7.31246 6.64426C7.3955 6.56122 7.3955 6.42462 7.31246 6.34158L3.73121 2.76033ZM13.1785 7.7773C13.2616 7.86033 13.3982 7.86033 13.4812 7.7773L17.0625 4.19873L18.233 5.36926C18.2615 5.39758 18.2973 5.41735 18.3364 5.42631C18.3756 5.43528 18.4165 5.43308 18.4544 5.41996C18.4924 5.40684 18.5259 5.38334 18.5511 5.35212C18.5764 5.3209 18.5924 5.28322 18.5973 5.24337L19.1035 0.954975C19.1196 0.818368 19.0044 0.700511 18.8651 0.716583L14.5741 1.22283C14.3973 1.24426 14.3223 1.46123 14.4482 1.58712L15.6241 2.76301L12.0428 6.3389C12.0029 6.37918 11.9806 6.43356 11.9806 6.49024C11.9806 6.54692 12.0029 6.60131 12.0428 6.64158L13.1785 7.7773ZM18.5973 15.0416C18.5759 14.8648 18.3589 14.7898 18.233 14.9157L17.0625 16.0862L13.4812 12.5077C13.4409 12.4678 13.3865 12.4454 13.3299 12.4454C13.2732 12.4454 13.2188 12.4678 13.1785 12.5077L12.0428 13.6407C12.0029 13.681 11.9806 13.7353 11.9806 13.792C11.9806 13.8487 12.0029 13.9031 12.0428 13.9434L15.6241 17.5246L14.4482 18.7005C14.4199 18.729 14.4001 18.7648 14.3911 18.804C14.3822 18.8431 14.3844 18.884 14.3975 18.9219C14.4106 18.9599 14.4341 18.9934 14.4653 19.0186C14.4965 19.0439 14.5342 19.0599 14.5741 19.0648L18.8651 19.571C19.0017 19.5871 19.1196 19.4719 19.1035 19.3326L18.5973 15.0416ZM6.17675 12.5077C6.13647 12.4678 6.08208 12.4454 6.02541 12.4454C5.96873 12.4454 5.91434 12.4678 5.87407 12.5077L2.29282 16.0862L1.12228 14.9157C1.09382 14.8874 1.05797 14.8676 1.01883 14.8586C0.979689 14.8497 0.938817 14.8519 0.900864 14.865C0.862911 14.8781 0.8294 14.9016 0.804143 14.9328C0.778887 14.964 0.762898 15.0017 0.757996 15.0416L0.251746 19.33C0.235674 19.4666 0.350853 19.5844 0.490138 19.5684L4.78121 19.0621C4.958 19.0407 5.033 18.8237 4.9071 18.6978L3.73121 17.5246L7.31246 13.946C7.3955 13.863 7.3955 13.7264 7.31246 13.6434L6.17675 12.5077Z" fill="black" fill-opacity="0.85"/>
</svg>
