<svg width="24" height="25" viewBox="0 0 24 25" fill="none" xmlns="http://www.w3.org/2000/svg">
<path d="M23.5234 11.3206C20.9841 5.97151 17.1457 3.27954 12.0002 3.27954C6.85194 3.27954 3.01623 5.97151 0.476941 11.3233C0.375089 11.539 0.322266 11.7745 0.322266 12.013C0.322266 12.2515 0.375089 12.4871 0.476941 12.7028C3.01623 18.0519 6.85462 20.7438 12.0002 20.7438C17.1484 20.7438 20.9841 18.0519 23.5234 12.7001C23.7296 12.2661 23.7296 11.7626 23.5234 11.3206ZM12.0002 18.8153C7.67962 18.8153 4.51623 16.6242 2.28498 12.0117C4.51623 7.39918 7.67962 5.20811 12.0002 5.20811C16.3207 5.20811 19.4841 7.39918 21.7153 12.0117C19.4868 16.6242 16.3234 18.8153 12.0002 18.8153ZM11.893 7.2974C9.28944 7.2974 7.17873 9.40811 7.17873 12.0117C7.17873 14.6153 9.28944 16.726 11.893 16.726C14.4966 16.726 16.6073 14.6153 16.6073 12.0117C16.6073 9.40811 14.4966 7.2974 11.893 7.2974ZM11.893 15.0117C10.235 15.0117 8.89301 13.6697 8.89301 12.0117C8.89301 10.3536 10.235 9.01168 11.893 9.01168C13.551 9.01168 14.893 10.3536 14.893 12.0117C14.893 13.6697 13.551 15.0117 11.893 15.0117Z" fill="#BFBFBF" fill-opacity="0.85"/>
</svg>
