<svg width="17" height="28" viewBox="0 0 17 28" fill="none" xmlns="http://www.w3.org/2000/svg">
<path d="M2.25 0.25C1.95453 0.25 1.66194 0.308198 1.38896 0.421271C1.11598 0.534344 0.867943 0.700078 0.659012 0.90901C0.45008 1.11794 0.284346 1.36598 0.171272 1.63896C0.0581994 1.91195 9.96422e-07 2.20453 9.83507e-07 2.5C9.70591e-07 2.79547 0.0581993 3.08806 0.171272 3.36104C0.284345 3.63402 0.45008 3.88206 0.659011 4.09099C0.867943 4.29992 1.11598 4.46566 1.38896 4.57873C1.66194 4.6918 1.95453 4.75 2.25 4.75C2.54548 4.75 2.83806 4.6918 3.11104 4.57873C3.38402 4.46566 3.63206 4.29992 3.84099 4.09099C4.04992 3.88206 4.21566 3.63402 4.32873 3.36104C4.4418 3.08806 4.5 2.79547 4.5 2.5C4.5 2.20453 4.4418 1.91195 4.32873 1.63896C4.21566 1.36598 4.04992 1.11794 3.84099 0.90901C3.63206 0.700078 3.38402 0.534344 3.11104 0.421271C2.83806 0.308198 2.54548 0.25 2.25 0.25ZM2.25 11.5C1.65326 11.5 1.08097 11.7371 0.659011 12.159C0.237054 12.581 5.17838e-07 13.1533 4.91753e-07 13.75C4.65669e-07 14.3467 0.237054 14.919 0.659011 15.341C1.08097 15.7629 1.65326 16 2.25 16C2.84674 16 3.41903 15.7629 3.84099 15.341C4.26295 14.919 4.5 14.3467 4.5 13.75C4.5 13.1533 4.26295 12.581 3.84099 12.159C3.41903 11.7371 2.84674 11.5 2.25 11.5ZM2.25 22.75C1.65326 22.75 1.08097 22.9871 0.659011 23.409C0.237054 23.831 2.60842e-08 24.4033 0 25C-2.60842e-08 25.5967 0.237054 26.169 0.65901 26.591C1.08097 27.0129 1.65326 27.25 2.25 27.25C2.84674 27.25 3.41903 27.0129 3.84099 26.591C4.26295 26.169 4.5 25.5967 4.5 25C4.5 24.4033 4.26295 23.831 3.84099 23.409C3.41903 22.9871 2.84674 22.75 2.25 22.75Z" fill="#C7C7C7"/>
<path d="M14.2937 0.25C13.9982 0.25 13.7056 0.308198 13.4327 0.421271C13.1597 0.534344 12.9116 0.700078 12.7027 0.90901C12.4938 1.11794 12.328 1.36598 12.215 1.63896C12.1019 1.91195 12.0437 2.20453 12.0437 2.5C12.0437 2.79547 12.1019 3.08806 12.215 3.36104C12.328 3.63402 12.4938 3.88206 12.7027 4.09099C12.9116 4.29992 13.1597 4.46566 13.4327 4.57873C13.7056 4.6918 13.9982 4.75 14.2937 4.75C14.5892 4.75 14.8818 4.6918 15.1547 4.57873C15.4277 4.46566 15.6758 4.29992 15.8847 4.09099C16.0936 3.88206 16.2594 3.63402 16.3724 3.36104C16.4855 3.08806 16.5437 2.79547 16.5437 2.5C16.5437 2.20453 16.4855 1.91195 16.3724 1.63896C16.2594 1.36598 16.0936 1.11794 15.8847 0.90901C15.6758 0.700078 15.4277 0.534344 15.1547 0.421271C14.8818 0.308198 14.5892 0.25 14.2937 0.25ZM14.2937 11.5C13.697 11.5 13.1247 11.7371 12.7027 12.159C12.2808 12.581 12.0437 13.1533 12.0437 13.75C12.0437 14.3467 12.2808 14.919 12.7027 15.341C13.1247 15.7629 13.697 16 14.2937 16C14.8904 16 15.4627 15.7629 15.8847 15.341C16.3066 14.919 16.5437 14.3467 16.5437 13.75C16.5437 13.1533 16.3066 12.581 15.8847 12.159C15.4627 11.7371 14.8904 11.5 14.2937 11.5ZM14.2937 22.75C13.697 22.75 13.1247 22.9871 12.7027 23.409C12.2808 23.831 12.0437 24.4033 12.0437 25C12.0437 25.5967 12.2808 26.169 12.7027 26.591C13.1247 27.0129 13.697 27.25 14.2937 27.25C14.8904 27.25 15.4627 27.0129 15.8847 26.591C16.3066 26.169 16.5437 25.5967 16.5437 25C16.5437 24.4033 16.3066 23.831 15.8847 23.409C15.4627 22.9871 14.8904 22.75 14.2937 22.75Z" fill="#C7C7C7"/>
</svg>
