<svg width="14" height="15" viewBox="0 0 14 15" fill="none" xmlns="http://www.w3.org/2000/svg">
<path d="M7 1.58862C3.61758 1.58862 0.875 4.3312 0.875 7.71362C0.875 11.096 3.61758 13.8386 7 13.8386C10.3824 13.8386 13.125 11.096 13.125 7.71362C13.125 4.3312 10.3824 1.58862 7 1.58862ZM7 12.7996C4.1918 12.7996 1.91406 10.5218 1.91406 7.71362C1.91406 4.90542 4.1918 2.62769 7 2.62769C9.8082 2.62769 12.0859 4.90542 12.0859 7.71362C12.0859 10.5218 9.8082 12.7996 7 12.7996Z" fill="#1890FF"/>
<path d="M6.34354 5.30737C6.34354 5.48142 6.41268 5.64834 6.53575 5.77141C6.65882 5.89448 6.82574 5.96362 6.99979 5.96362C7.17383 5.96362 7.34075 5.89448 7.46382 5.77141C7.5869 5.64834 7.65604 5.48142 7.65604 5.30737C7.65604 5.13332 7.5869 4.9664 7.46382 4.84333C7.34075 4.72026 7.17383 4.65112 6.99979 4.65112C6.82574 4.65112 6.65882 4.72026 6.53575 4.84333C6.41268 4.9664 6.34354 5.13332 6.34354 5.30737ZM7.32791 6.83862H6.67166C6.61151 6.83862 6.56229 6.88784 6.56229 6.948V10.6667C6.56229 10.7269 6.61151 10.7761 6.67166 10.7761H7.32791C7.38807 10.7761 7.43729 10.7269 7.43729 10.6667V6.948C7.43729 6.88784 7.38807 6.83862 7.32791 6.83862Z" fill="#1890FF"/>
</svg>
