<svg width="10" height="13" viewBox="0 0 10 13" fill="none" xmlns="http://www.w3.org/2000/svg">
<path d="M8.91819 0.961792H2.33619C2.26915 0.961792 2.2143 1.02139 2.2143 1.09424V2.15385C2.2143 2.22669 2.26915 2.2863 2.33619 2.2863H5.09698L2.72014 11.2929H0.248842C0.181803 11.2929 0.126953 11.3525 0.126953 11.4254V12.485C0.126953 12.5578 0.181803 12.6174 0.248842 12.6174H6.83085C6.89789 12.6174 6.95273 12.5578 6.95273 12.485V11.4254C6.95273 11.3525 6.89789 11.2929 6.83085 11.2929H3.98779L6.36462 2.2863H8.91819C8.98523 2.2863 9.04008 2.22669 9.04008 2.15385V1.09424C9.04008 1.02139 8.98523 0.961792 8.91819 0.961792Z" fill="black" fill-opacity="0.85"/>
</svg>
