<svg width="14" height="13" viewBox="0 0 14 13" fill="none" xmlns="http://www.w3.org/2000/svg">
<path d="M13.5574 0.961792H0.271548C0.153734 0.961792 0.0582275 1.0205 0.0582275 1.09292V2.01495C0.0582275 2.08737 0.153734 2.14608 0.271548 2.14608H13.5574C13.6752 2.14608 13.7707 2.08737 13.7707 2.01495V1.09292C13.7707 1.0205 13.6752 0.961792 13.5574 0.961792Z" fill="#222222"/>
<path d="M13.5574 11.4331H0.271548C0.153734 11.4331 0.0582275 11.4918 0.0582275 11.5643V12.4863C0.0582275 12.5587 0.153734 12.6174 0.271548 12.6174H13.5574C13.6752 12.6174 13.7707 12.5587 13.7707 12.4863V11.5643C13.7707 11.4918 13.6752 11.4331 13.5574 11.4331Z" fill="#222222"/>
<path d="M13.5574 7.94269H0.271548C0.153734 7.94269 0.0582275 8.0014 0.0582275 8.07382V8.99584C0.0582275 9.06827 0.153734 9.12698 0.271548 9.12698H13.5574C13.6752 9.12698 13.7707 9.06827 13.7707 8.99584V8.07382C13.7707 8.0014 13.6752 7.94269 13.5574 7.94269Z" fill="#222222"/>
<path d="M13.5574 4.45224H0.271548C0.153734 4.45224 0.0582275 4.51095 0.0582275 4.58337V5.5054C0.0582275 5.57782 0.153734 5.63653 0.271548 5.63653H13.5574C13.6752 5.63653 13.7707 5.57782 13.7707 5.5054V4.58337C13.7707 4.51095 13.6752 4.45224 13.5574 4.45224Z" fill="#222222"/>
</svg>
