<svg width="25" height="25" viewBox="0 0 25 25" fill="none" xmlns="http://www.w3.org/2000/svg">
<path d="M7.83335 11.7136L7.16669 13.7803H8.50002L7.83335 11.7136Z" fill="black"/>
<path d="M20.7 2.71362H10.0333V6.04696H12.7V7.38029H4.03333C2.89999 7.38029 2.03333 8.24696 2.03333 9.38029V16.7136C2.03333 17.847 2.89999 18.7136 4.03333 18.7136H4.69999V22.1136L8.89999 18.7136H13.3667V14.047H20.7C21.8333 14.047 22.7 13.1803 22.7 12.047V4.71362C22.7 3.58029 21.8333 2.71362 20.7 2.71362ZM9.23333 15.9803L8.89999 14.9136H6.83332L6.43332 15.9803H4.83332L7.03332 10.047H8.63332L10.8333 15.9803H9.23333ZM19.3667 10.7136V12.047C18.5 12.047 17.5667 11.7803 16.7667 11.3803C15.9667 11.7803 15.0333 11.9803 14.1 12.047L14.0333 10.7136C14.5 10.7136 14.9667 10.647 15.4333 10.5136C14.8333 9.91362 14.4333 9.18029 14.2333 8.38029H15.6333C15.8333 8.98029 16.2333 9.44696 16.7 9.84696C17.4333 9.24696 17.9 8.38029 17.9667 7.38029H13.9667V6.04696H15.9667V4.71362H17.3V6.04696H19.5L19.5667 6.71362C19.6333 8.11362 19.1 9.51362 18.1 10.5136C18.5667 10.647 18.9667 10.7136 19.3667 10.7136Z" fill="black"/>
</svg>
