<svg width="14" height="14" viewBox="0 0 14 14" fill="none" xmlns="http://www.w3.org/2000/svg">
<path d="M5.20656 5.90531H13.4341C13.5095 5.90531 13.5712 5.8422 13.5712 5.76507V4.78337C13.5712 4.70624 13.5095 4.64313 13.4341 4.64313H5.20656C5.13114 4.64313 5.06944 4.70624 5.06944 4.78337V5.76507C5.06944 5.8422 5.13114 5.90531 5.20656 5.90531ZM5.06944 9.48147C5.06944 9.5586 5.13114 9.62171 5.20656 9.62171H13.4341C13.5095 9.62171 13.5712 9.5586 13.5712 9.48147V8.49978C13.5712 8.42264 13.5095 8.35953 13.4341 8.35953H5.20656C5.13114 8.35953 5.06944 8.42264 5.06944 8.49978V9.48147ZM13.7083 0.961792H0.27006C0.194641 0.961792 0.132935 1.0249 0.132935 1.10203V2.08372C0.132935 2.16086 0.194641 2.22397 0.27006 2.22397H13.7083C13.7837 2.22397 13.8454 2.16086 13.8454 2.08372V1.10203C13.8454 1.0249 13.7837 0.961792 13.7083 0.961792ZM13.7083 12.0409H0.27006C0.194641 12.0409 0.132935 12.104 0.132935 12.1811V13.1628C0.132935 13.2399 0.194641 13.303 0.27006 13.303H13.7083C13.7837 13.303 13.8454 13.2399 13.8454 13.1628V12.1811C13.8454 12.104 13.7837 12.0409 13.7083 12.0409ZM0.65401 9.4131L3.33309 7.25513C3.35113 7.24063 3.36571 7.22213 3.37574 7.20103C3.38577 7.17992 3.39098 7.15676 3.39098 7.1333C3.39098 7.10983 3.38577 7.08667 3.37574 7.06557C3.36571 7.04446 3.35113 7.02596 3.33309 7.01146L0.65401 4.85174C0.554594 4.7711 0.407185 4.84298 0.407185 4.9727V9.29039C0.407176 9.31967 0.415222 9.34836 0.430405 9.37318C0.445588 9.398 0.467294 9.41796 0.493042 9.43076C0.51879 9.44356 0.54754 9.44869 0.576005 9.44557C0.60447 9.44244 0.631502 9.43119 0.65401 9.4131Z" fill="black" fill-opacity="0.85"/>
</svg>
