<svg width="13" height="13" viewBox="0 0 13 13" fill="none" xmlns="http://www.w3.org/2000/svg">
<path d="M7.12471 9.11886C7.10189 9.09626 7.07107 9.08358 7.03896 9.08358C7.00685 9.08358 6.97603 9.09626 6.95321 9.11886L5.1896 10.8825C4.37306 11.699 2.99496 11.7855 2.09342 10.8825C1.19037 9.97941 1.27688 8.60283 2.09342 7.78628L3.85703 6.02268C3.90408 5.97563 3.90408 5.89822 3.85703 5.85117L3.25297 5.24712C3.23015 5.22452 3.19933 5.21184 3.16722 5.21184C3.13511 5.21184 3.10429 5.22452 3.08147 5.24712L1.31786 7.01072C0.0338576 8.29473 0.0338576 10.3725 1.31786 11.655C2.60186 12.9375 4.67964 12.939 5.96213 11.655L7.72574 9.89138C7.77278 9.84433 7.77278 9.76693 7.72574 9.71988L7.12471 9.11886ZM11.0496 1.92479C9.76557 0.640791 7.68779 0.640791 6.40531 1.92479L4.64018 3.6884C4.61759 3.71122 4.60491 3.74204 4.60491 3.77415C4.60491 3.80627 4.61759 3.83709 4.64018 3.85991L5.24272 4.46245C5.28977 4.5095 5.36718 4.5095 5.41423 4.46245L7.17783 2.69884C7.99437 1.8823 9.37248 1.79579 10.274 2.69884C11.1771 3.60189 11.0906 4.97848 10.274 5.79502L8.5104 7.55862C8.48781 7.58145 8.47513 7.61226 8.47513 7.64438C8.47513 7.67649 8.48781 7.70731 8.5104 7.73013L9.11446 8.33419C9.16151 8.38124 9.23892 8.38124 9.28597 8.33419L11.0496 6.57058C12.3321 5.28658 12.3321 3.2088 11.0496 1.92479ZM7.67261 4.67038C7.64979 4.64778 7.61898 4.6351 7.58686 4.6351C7.55475 4.6351 7.52393 4.64778 7.50111 4.67038L4.06344 8.10653C4.04085 8.12935 4.02817 8.16016 4.02817 8.19228C4.02817 8.22439 4.04085 8.25521 4.06344 8.27803L4.66446 8.87905C4.71151 8.9261 4.78892 8.9261 4.83597 8.87905L8.27212 5.4429C8.31917 5.39585 8.31917 5.31845 8.27212 5.2714L7.67261 4.67038Z" fill="black" fill-opacity="0.85"/>
</svg>
