<svg width="8" height="7" viewBox="0 0 8 7" fill="none" xmlns="http://www.w3.org/2000/svg">
<path d="M2.34972 6.6638V2.16824H0.852957V6.6638H2.34972ZM1.60153 1.55408C2.12348 1.55408 2.44837 1.20887 2.44837 0.777479C2.43864 0.336358 2.1235 0.000732422 1.61144 0.000732422C1.09945 0.000732422 0.764648 0.336364 0.764648 0.777479C0.764648 1.20889 1.08946 1.55408 1.59176 1.55408H1.60149H1.60153ZM3.17817 6.6638H4.67494V4.15326C4.67494 4.0189 4.68466 3.88468 4.72419 3.78863C4.83239 3.52018 5.07867 3.24215 5.49214 3.24215C6.03376 3.24215 6.25043 3.6544 6.25043 4.25874V6.66377H7.7471V4.08606C7.7471 2.7052 7.00868 2.0627 6.0239 2.0627C5.21645 2.0627 4.86193 2.51327 4.66498 2.82015H4.67497V2.16815H3.17821C3.19785 2.58999 3.17821 6.66371 3.17821 6.66371L3.17817 6.6638Z" fill="#3D0F00"/>
</svg>
