<svg width="224" height="38" viewBox="0 0 224 38" fill="none" xmlns="http://www.w3.org/2000/svg">
<path d="M29.2827 26.7622L29.2404 29H19.7827L14.2093 18.36L11.4227 18.4022V26.2133L14.9271 26.7622L14.8849 29H0.444889L0.191556 27.6489C1.26119 26.917 2.45748 26.2556 3.78044 25.6644V3.75111L0.613778 3.28667L0.656 1.04889L14.9693 0.711111C18.3471 0.711111 21.1197 1.55556 23.2871 3.24444C25.4827 4.90519 26.5804 7.00222 26.5804 9.53555C26.5804 11.1681 26.0879 12.6881 25.1027 14.0956C24.1175 15.4748 22.7804 16.5444 21.0916 17.3044L26.7071 26.3822L29.2827 26.7622ZM11.4227 14.4756C12.2108 14.6726 12.999 14.7711 13.7871 14.7711C17.1086 14.7711 18.7693 13.0681 18.7693 9.66222C18.7693 7.35407 18.0516 5.59481 16.616 4.38444L11.4227 5.01778V14.4756ZM46.4401 19.3311L35.8001 19.2467C35.9971 21.0763 36.6445 22.4837 37.7423 23.4689C38.8682 24.4541 40.2756 24.9467 41.9645 24.9467C43.4564 24.9467 45.2438 24.4119 47.3267 23.3422L48.3823 25.7489L41.7534 29.5067L39.8112 29.6333C36.6867 29.6333 34.083 28.6481 32.0001 26.6778C29.9452 24.7074 28.9178 22.1881 28.9178 19.12C28.9178 15.9956 29.9593 13.3496 32.0423 11.1822C34.1534 8.98667 36.7008 7.88889 39.6845 7.88889C42.4149 7.88889 44.6386 8.71926 46.3556 10.38C48.0727 12.0126 48.9171 14.18 48.889 16.8822L46.4401 19.3311ZM38.5445 11.3933C37.1934 12.2378 36.3349 13.7859 35.969 16.0378L42.3023 15.6578C42.1334 14.5037 41.6971 13.5185 40.9934 12.7022C40.3178 11.8578 39.5015 11.4215 38.5445 11.3933ZM57.5445 12.9133C57.5445 13.42 57.7275 13.8844 58.0934 14.3067C58.4593 14.7007 59.7682 15.4889 62.0201 16.6711C64.2719 17.8252 65.7919 18.9089 66.5801 19.9222C67.3682 20.9074 67.7623 22.0333 67.7623 23.3C67.7623 25.2141 66.9741 26.7904 65.3978 28.0289C63.8215 29.2393 61.7245 29.8444 59.1067 29.8444C56.1512 29.8444 53.2097 29.0844 50.2823 27.5644L52.689 22.0333C55.1378 23.9193 57.6712 25.3267 60.289 26.2556C60.7956 25.8052 61.049 25.2844 61.049 24.6933C61.049 24.1585 60.8378 23.68 60.4156 23.2578C60.0215 22.8356 58.7267 22.0756 56.5312 20.9778C54.3638 19.8519 52.886 18.8104 52.0978 17.8533C51.3378 16.8681 50.9578 15.7563 50.9578 14.5178C50.9578 12.5474 51.8164 10.957 53.5334 9.74667C55.2786 8.50815 57.5304 7.88889 60.289 7.88889C62.8504 7.88889 65.0319 8.35333 66.8334 9.28222L66.9178 10.76C66.9178 12.2237 66.6786 13.7015 66.2001 15.1933H62.4845L61.1756 11.3511L59.2334 11.14C58.1075 11.4778 57.5445 12.0689 57.5445 12.9133ZM95.5438 26.5933L89.9283 29.7178C89.112 29.6615 88.2816 29.3096 87.4372 28.6622C86.6209 28.0148 85.9594 27.1704 85.4527 26.1289C83.2009 27.8459 80.935 29.0422 78.655 29.7178C77.2194 29.7178 75.8542 29.2674 74.5594 28.3667C73.2927 27.4659 72.575 26.34 72.4061 24.9889L72.2794 22.5822V12.1533L69.155 11.5622L68.9438 9.53555C71.449 8.57852 74.2357 8.05778 77.3038 7.97333L79.5838 10V21.1467C79.5838 23.483 80.4705 24.6511 82.2438 24.6511C83.1164 24.6511 83.9609 24.4681 84.7772 24.1022V12.0267L82.4127 11.4356L82.2016 9.40889C84.4535 8.50815 86.9868 8.02963 89.8016 7.97333L92.0816 10V23.7644C92.0816 24.4963 92.4335 24.8622 93.1372 24.8622L94.235 24.82L95.2905 24.7356L95.5438 26.5933ZM131.93 25.3689C133.282 25.8474 134.365 26.3681 135.182 26.9311L135.055 29H124.626V17.3044C124.626 14.4615 123.725 13.04 121.924 13.04C121.136 13.04 120.263 13.2652 119.306 13.7156L119.348 25.5378C120.221 25.9037 121.065 26.3681 121.882 26.9311L121.755 29H112.044V17.3044C112.044 14.4615 111.143 13.04 109.342 13.04C108.638 13.04 107.793 13.2511 106.808 13.6733V25.58C107.822 26.0304 108.638 26.4807 109.257 26.9311L109.173 29H96.4638L96.3794 27.5222C97.252 27.0156 98.2935 26.5511 99.5038 26.1289V12.1533L96.3794 11.5622L96.1683 9.53555C98.6735 8.57852 101.46 8.05778 104.528 7.97333L106.808 10.2533V11.4356C109.032 9.80296 111.087 8.69111 112.973 8.1C115.619 8.18444 117.575 9.19778 118.842 11.14L119.095 11.6889C121.375 9.9437 123.528 8.74741 125.555 8.1C128.201 8.18444 130.157 9.19778 131.424 11.14C131.733 11.703 131.902 12.9837 131.93 14.9822V25.3689ZM153.109 19.3311L142.469 19.2467C142.666 21.0763 143.313 22.4837 144.411 23.4689C145.537 24.4541 146.944 24.9467 148.633 24.9467C150.125 24.9467 151.913 24.4119 153.996 23.3422L155.051 25.7489L148.422 29.5067L146.48 29.6333C143.356 29.6333 140.752 28.6481 138.669 26.6778C136.614 24.7074 135.587 22.1881 135.587 19.12C135.587 15.9956 136.628 13.3496 138.711 11.1822C140.822 8.98667 143.37 7.88889 146.353 7.88889C149.084 7.88889 151.307 8.71926 153.024 10.38C154.741 12.0126 155.586 14.18 155.558 16.8822L153.109 19.3311ZM145.213 11.3933C143.862 12.2378 143.004 13.7859 142.638 16.0378L148.971 15.6578C148.802 14.5037 148.366 13.5185 147.662 12.7022C146.987 11.8578 146.17 11.4215 145.213 11.3933ZM169.629 29.2533C168.615 29.2533 167.616 29.1548 166.631 28.9578V33.6444C168.32 34.32 169.657 34.9252 170.642 35.46L170.558 37.5289H156.624L156.54 36.0511L159.326 34.9533V12.1533L156.244 11.5622L156.033 9.53555C158.538 8.57852 161.325 8.05778 164.393 7.97333V8.01556L166.631 10V11.5622L171.064 8.26889L172.5 8.14222C174.808 8.14222 176.694 9.08518 178.158 10.9711C179.649 12.8289 180.395 15.1652 180.395 17.98C180.395 21.2733 179.396 23.9756 177.398 26.0867C175.399 28.1978 172.809 29.2533 169.629 29.2533ZM168.658 13.2511C168.038 13.2511 167.363 13.42 166.631 13.7578V25.3267C167.898 25.6644 169.108 25.7911 170.262 25.7067C170.966 25.0311 171.529 24.1022 171.951 22.92C172.401 21.7096 172.626 20.4711 172.626 19.2044C172.626 17.5719 172.275 16.1785 171.571 15.0244C170.867 13.8422 169.896 13.2511 168.658 13.2511ZM192.284 15.1511V25.1578C194.169 25.6081 195.704 26.1993 196.886 26.9311L196.801 29H181.939L181.855 27.5222C182.727 27.0156 183.769 26.5511 184.979 26.1289V12.1533L181.855 11.5622L181.644 9.53555C184.149 8.57852 186.935 8.05778 190.004 7.97333L192.284 11.14V11.9L195.619 8.14222C196.041 8.00148 196.576 7.93111 197.224 7.93111C198.349 7.93111 199.377 8.21259 200.306 8.77555C201.263 9.33852 201.924 10.1267 202.29 11.14L197.435 17.2622C195.549 15.6859 194.043 14.8274 192.917 14.6867L192.284 15.1511ZM202.136 18.74C202.136 15.5593 203.135 12.9556 205.134 10.9289C207.132 8.90222 209.666 7.88889 212.734 7.88889C215.802 7.88889 218.321 8.9163 220.292 10.9711C222.262 13.0259 223.247 15.6859 223.247 18.9511C223.247 22.1881 222.276 24.82 220.334 26.8467C218.42 28.8452 215.943 29.8444 212.903 29.8444C209.807 29.8444 207.231 28.803 205.176 26.72C203.149 24.6089 202.136 21.9489 202.136 18.74ZM214.296 25.8333C215.338 25.0452 215.858 22.9059 215.858 19.4156C215.858 14.4333 214.718 11.9422 212.438 11.9422C211.735 11.9422 211.186 12.097 210.792 12.4067C209.947 13.5326 209.525 15.6719 209.525 18.8244C209.525 20.9637 209.821 22.7089 210.412 24.06C211.003 25.383 211.904 26.0444 213.114 26.0444C213.508 26.0444 213.902 25.9741 214.296 25.8333Z" fill="#2A2F32"/>
</svg>
