<svg width="31" height="18" viewBox="0 0 31 18" fill="none" xmlns="http://www.w3.org/2000/svg">
<path d="M30.1782 16.25C30.1782 15.9185 30.0465 15.6005 29.8121 15.3661C29.5777 15.1317 29.2597 15 28.9282 15H21.4282C21.0967 15 20.7788 15.1317 20.5443 15.3661C20.3099 15.6005 20.1782 15.9185 20.1782 16.25C20.1782 16.5815 20.3099 16.8995 20.5443 17.1339C20.7788 17.3683 21.0967 17.5 21.4282 17.5H28.9282C29.2597 17.5 29.5777 17.3683 29.8121 17.1339C30.0465 16.8995 30.1782 16.5815 30.1782 16.25ZM30.1782 8.75C30.1782 8.41848 30.0465 8.10054 29.8121 7.86612C29.5777 7.6317 29.2597 7.5 28.9282 7.5H11.4282C11.0967 7.5 10.7788 7.6317 10.5443 7.86612C10.3099 8.10054 10.1782 8.41848 10.1782 8.75C10.1782 9.08152 10.3099 9.39946 10.5443 9.63388C10.7788 9.8683 11.0967 10 11.4282 10H28.9282C29.2597 10 29.5777 9.8683 29.8121 9.63388C30.0465 9.39946 30.1782 9.08152 30.1782 8.75ZM30.1782 1.25C30.1782 0.918479 30.0465 0.600537 29.8121 0.366117C29.5777 0.131696 29.2597 0 28.9282 0H1.42822C1.0967 0 0.77876 0.131696 0.544339 0.366117C0.309919 0.600537 0.178223 0.918479 0.178223 1.25C0.178223 1.58152 0.309919 1.89946 0.544339 2.13388C0.77876 2.3683 1.0967 2.5 1.42822 2.5H28.9282C29.2597 2.5 29.5777 2.3683 29.8121 2.13388C30.0465 1.89946 30.1782 1.58152 30.1782 1.25Z" fill="#2A2F32"/>
</svg>
