<svg width="22" height="40" viewBox="0 0 22 40" fill="none" xmlns="http://www.w3.org/2000/svg">
<mask id="path-1-inside-1_666_7556" fill="white">
<path d="M11 15L16 20L11 25L9.93933 23.9393L13.8787 20L9.93933 16.0607L11 15Z"/>
</mask>
<path d="M11 15L16 20L11 25L9.93933 23.9393L13.8787 20L9.93933 16.0607L11 15Z" fill="white"/>
<path d="M16 20L17.0607 21.0607L18.1213 20L17.0607 18.9393L16 20ZM11 15L12.0607 13.9393L11 12.8787L9.93933 13.9393L11 15ZM11 25L9.93933 26.0607L11 27.1213L12.0607 26.0607L11 25ZM9.93933 16.0607L8.87867 15L7.81801 16.0607L8.87867 17.1213L9.93933 16.0607ZM9.93933 23.9393L8.87867 22.8787L7.81801 23.9393L8.87867 25L9.93933 23.9393ZM13.8787 20L14.9393 21.0607L16 20L14.9393 18.9393L13.8787 20ZM17.0607 18.9393L12.0607 13.9393L9.93933 16.0607L14.9393 21.0607L17.0607 18.9393ZM12.0607 26.0607L17.0607 21.0607L14.9393 18.9393L9.93933 23.9393L12.0607 26.0607ZM9.93933 13.9393L8.87867 15L11 17.1213L12.0607 16.0607L9.93933 13.9393ZM8.87867 25L9.93933 26.0607L12.0607 23.9393L11 22.8787L8.87867 25ZM12.818 18.9393L8.87867 22.8787L11 25L14.9393 21.0607L12.818 18.9393ZM8.87867 17.1213L12.818 21.0607L14.9393 18.9393L11 15L8.87867 17.1213Z" fill="black" fill-opacity="0.25" mask="url(#path-1-inside-1_666_7556)"/>
<mask id="path-3-inside-2_666_7556" fill="white">
<path d="M4.93932 15L9.93932 20L4.93932 25L3.87866 23.9393L7.818 20L3.87866 16.0607L4.93932 15Z"/>
</mask>
<path d="M4.93932 15L9.93932 20L4.93932 25L3.87866 23.9393L7.818 20L3.87866 16.0607L4.93932 15Z" fill="white"/>
<path d="M9.93932 20L11 21.0607L12.0606 20L11 18.9393L9.93932 20ZM4.93932 15L5.99998 13.9393L4.93932 12.8787L3.87866 13.9393L4.93932 15ZM4.93932 25L3.87866 26.0607L4.93932 27.1213L5.99998 26.0607L4.93932 25ZM3.87866 16.0607L2.818 15L1.75734 16.0607L2.818 17.1213L3.87866 16.0607ZM3.87866 23.9393L2.818 22.8787L1.75734 23.9393L2.818 25L3.87866 23.9393ZM7.818 20L8.87866 21.0607L9.93932 20L8.87866 18.9393L7.818 20ZM11 18.9393L5.99998 13.9393L3.87866 16.0607L8.87866 21.0607L11 18.9393ZM5.99998 26.0607L11 21.0607L8.87866 18.9393L3.87866 23.9393L5.99998 26.0607ZM3.87866 13.9393L2.818 15L4.93932 17.1213L5.99998 16.0607L3.87866 13.9393ZM2.818 25L3.87866 26.0607L5.99998 23.9393L4.93932 22.8787L2.818 25ZM6.75734 18.9393L2.818 22.8787L4.93932 25L8.87866 21.0607L6.75734 18.9393ZM2.818 17.1213L6.75734 21.0607L8.87866 18.9393L4.93932 15L2.818 17.1213Z" fill="black" fill-opacity="0.25" mask="url(#path-3-inside-2_666_7556)"/>
</svg>
