<svg width="14" height="14" viewBox="0 0 14 14" fill="none" xmlns="http://www.w3.org/2000/svg">
<path d="M13.8336 11.2909H4.20846C4.13594 11.2909 4.07661 11.3513 4.07661 11.425V12.364C4.07661 12.4378 4.13594 12.4982 4.20846 12.4982H13.8336C13.9061 12.4982 13.9654 12.4378 13.9654 12.364V11.425C13.9654 11.3513 13.9061 11.2909 13.8336 11.2909ZM13.8336 1.76666H4.20846C4.13594 1.76666 4.07661 1.82702 4.07661 1.9008V2.83981C4.07661 2.91359 4.13594 2.97395 4.20846 2.97395H13.8336C13.9061 2.97395 13.9654 2.91359 13.9654 2.83981V1.9008C13.9654 1.82702 13.9061 1.76666 13.8336 1.76666ZM13.8336 6.52877H4.20846C4.13594 6.52877 4.07661 6.58914 4.07661 6.66292V7.60193C4.07661 7.6757 4.13594 7.73607 4.20846 7.73607H13.8336C13.9061 7.73607 13.9654 7.6757 13.9654 7.60193V6.66292C13.9654 6.58914 13.9061 6.52877 13.8336 6.52877ZM2.2307 10.486H0.318855C0.282596 10.486 0.25293 10.5162 0.25293 10.5531V11.1232C0.25293 11.1601 0.282596 11.1903 0.318855 11.1903H1.51211V11.534H0.923722C0.887463 11.534 0.857796 11.5642 0.857796 11.6011V12.1712C0.857796 12.2081 0.887463 12.2383 0.923722 12.2383H1.51211V12.5988H0.318855C0.282596 12.5988 0.25293 12.629 0.25293 12.6659V13.236C0.25293 13.2729 0.282596 13.3031 0.318855 13.3031H2.2307C2.26695 13.3031 2.29662 13.2729 2.29662 13.236V10.5531C2.29662 10.5162 2.26695 10.486 2.2307 10.486ZM0.318855 1.69958H0.945148V3.71175C0.945148 3.74864 0.974814 3.77882 1.01107 3.77882H1.67033C1.70659 3.77882 1.73625 3.74864 1.73625 3.71175V1.09594C1.73625 1.02216 1.67692 0.961792 1.6044 0.961792H0.318855C0.282596 0.961792 0.25293 0.991974 0.25293 1.02886V1.63251C0.25293 1.6694 0.282596 1.69958 0.318855 1.69958ZM2.2307 5.72391H0.318855C0.282596 5.72391 0.25293 5.75409 0.25293 5.79098V6.39463C0.25293 6.43152 0.282596 6.4617 0.318855 6.4617H1.44618L0.287541 7.76458C0.265687 7.78955 0.253401 7.82169 0.25293 7.85512V8.47386C0.25293 8.51075 0.282596 8.54093 0.318855 8.54093H2.2307C2.26695 8.54093 2.29662 8.51075 2.29662 8.47386V7.87021C2.29662 7.83332 2.26695 7.80314 2.2307 7.80314H1.10337L2.26201 6.50027C2.28386 6.47529 2.29615 6.44315 2.29662 6.40972V5.79098C2.29662 5.75409 2.26695 5.72391 2.2307 5.72391Z" fill="black" fill-opacity="0.85"/>
</svg>
