<svg width="21" height="19" viewBox="0 0 21 19" fill="none" xmlns="http://www.w3.org/2000/svg">
<path d="M0.5 1.70662C0.50183 1.444 0.6069 1.19264 0.792513 1.00684C0.978126 0.821041 1.22938 0.715718 1.492 0.713623H19.508C20.056 0.713623 20.5 1.15862 20.5 1.70662V17.7206C20.4982 17.9832 20.3931 18.2346 20.2075 18.4204C20.0219 18.6062 19.7706 18.7115 19.508 18.7136H1.492C1.22881 18.7134 0.976497 18.6086 0.790489 18.4224C0.604482 18.2362 0.5 17.9838 0.5 17.7206V1.70662ZM4.5 12.7136V14.7136H16.5V12.7136H4.5ZM4.5 4.71362V10.7136H10.5V4.71362H4.5ZM12.5 4.71362V6.71362H16.5V4.71362H12.5ZM12.5 8.71362V10.7136H16.5V8.71362H12.5ZM6.5 6.71362H8.5V8.71362H6.5V6.71362Z" fill="black"/>
</svg>
