<svg width="10" height="10" viewBox="0 0 10 10" fill="none" xmlns="http://www.w3.org/2000/svg">
<path d="M4.55445 2.24054L3.00411 0.454015C2.82538 0.248141 2.49772 0.249056 2.29012 0.45676L1.01521 1.73181C0.635759 2.11107 0.527148 2.67425 0.74666 3.1258C2.05806 5.83646 4.24788 8.02564 6.96129 9.33862C7.41315 9.55776 7.97682 9.44933 8.35627 9.07007L9.6431 7.78312C9.85162 7.57496 9.85207 7.24602 9.64402 7.0676L7.84759 5.52812C7.6597 5.36708 7.36778 5.38813 7.17943 5.57661L6.55435 6.20156C6.52234 6.23504 6.48022 6.25711 6.43444 6.26438C6.38866 6.27165 6.34175 6.26373 6.30092 6.24182C5.27918 5.65443 4.43162 4.80721 3.84458 3.78643C3.8226 3.7456 3.81464 3.69869 3.82192 3.65291C3.82921 3.60713 3.85133 3.56499 3.88491 3.53297L4.50816 2.91032C4.69697 2.72092 4.71759 2.42812 4.55445 2.24009V2.24054Z" fill="#3D0F00"/>
</svg>
