<svg width="14" height="14" viewBox="0 0 14 14" fill="none" xmlns="http://www.w3.org/2000/svg">
<path d="M5.26656 5.90531H13.4941C13.5695 5.90531 13.6312 5.8422 13.6312 5.76507V4.78337C13.6312 4.70624 13.5695 4.64313 13.4941 4.64313H5.26656C5.19114 4.64313 5.12943 4.70624 5.12943 4.78337V5.76507C5.12943 5.8422 5.19114 5.90531 5.26656 5.90531ZM5.12943 9.48147C5.12943 9.5586 5.19114 9.62171 5.26656 9.62171H13.4941C13.5695 9.62171 13.6312 9.5586 13.6312 9.48147V8.49978C13.6312 8.42264 13.5695 8.35953 13.4941 8.35953H5.26656C5.19114 8.35953 5.12943 8.42264 5.12943 8.49978V9.48147ZM13.7683 0.961792H0.330057C0.254638 0.961792 0.192932 1.0249 0.192932 1.10203V2.08372C0.192932 2.16086 0.254638 2.22397 0.330057 2.22397H13.7683C13.8437 2.22397 13.9054 2.16086 13.9054 2.08372V1.10203C13.9054 1.0249 13.8437 0.961792 13.7683 0.961792ZM13.7683 12.0409H0.330057C0.254638 12.0409 0.192932 12.104 0.192932 12.1811V13.1628C0.192932 13.2399 0.254638 13.303 0.330057 13.303H13.7683C13.8437 13.303 13.9054 13.2399 13.9054 13.1628V12.1811C13.9054 12.104 13.8437 12.0409 13.7683 12.0409ZM0.25121 7.25338L2.93029 9.41135C3.02971 9.49199 3.17712 9.42011 3.17712 9.29039V4.97445C3.17712 4.84473 3.03142 4.77286 2.93029 4.8535L0.25121 7.01146C0.233196 7.02579 0.218619 7.04413 0.208592 7.06509C0.198564 7.08606 0.193352 7.10908 0.193352 7.13242C0.193352 7.15576 0.198564 7.17879 0.208592 7.19975C0.218619 7.22071 0.233196 7.23906 0.25121 7.25338Z" fill="black" fill-opacity="0.85"/>
</svg>
