<svg width="10" height="10" viewBox="0 0 10 10" fill="none" xmlns="http://www.w3.org/2000/svg">
<path d="M4.78888 9.39773C3.97044 9.2918 3.12791 8.94139 2.51422 8.45098C1.13256 7.3505 0.505399 5.6119 0.863861 3.88531C1.01757 3.13982 1.4179 2.3554 1.93036 1.79028C2.30786 1.36615 2.76311 1.01798 3.27158 0.764518C3.94664 0.42298 4.59187 0.269531 5.35353 0.269531C5.90011 0.269531 6.33944 0.341103 6.84272 0.512587C7.5039 0.738994 8.10457 1.11311 8.59895 1.60641C9.09334 2.09971 9.46839 2.69918 9.69551 3.35912C9.9645 4.1464 10.0135 4.98436 9.84176 5.81487C9.7044 6.47104 9.35024 7.20908 8.91435 7.74272C8.73512 7.96344 8.32274 8.35708 8.10623 8.51654C7.4585 8.99679 6.69673 9.30047 5.89581 9.39773C5.6598 9.4275 5.01743 9.42607 4.78917 9.39773H4.78888ZM6.03919 9.01468C7.15711 8.82763 8.15481 8.20491 8.81283 7.28351C9.58797 6.19649 9.79559 4.73815 9.35798 3.46648C9.25503 3.16817 8.99952 2.67032 8.81283 2.40779C8.60521 2.11407 8.09132 1.59961 7.79566 1.39234C7.50889 1.18965 7.02052 0.943446 6.68729 0.834658C6.08579 0.635157 5.44707 0.573129 4.81833 0.653156C4.18959 0.733182 3.5869 0.953219 3.05478 1.29701C2.55413 1.62533 2.12617 2.05256 1.7973 2.55237C1.45301 3.0833 1.23265 3.68468 1.15248 4.31207C1.07232 4.93946 1.13441 5.57681 1.33416 6.17702C1.44457 6.5094 1.69119 6.99866 1.89279 7.28495C2.10185 7.57867 2.61574 8.09313 2.90996 8.3004C3.17437 8.48534 3.67162 8.74013 3.97044 8.84463C4.63554 9.07021 5.34609 9.12862 6.03919 9.01468ZM4.44992 7.47876C4.23551 7.44649 4.02982 7.37142 3.84512 7.25803C3.67937 7.15211 2.42762 5.92795 2.36653 5.81315C2.29628 5.68204 2.41873 5.44327 2.59366 5.37027L2.67567 5.33592L2.42332 5.07941C2.28452 4.93769 2.15289 4.78711 2.13196 4.74531C2.08263 4.64998 2.0812 4.44557 2.12737 4.35453C2.14687 4.31732 2.19304 4.26063 2.22889 4.22914C2.29025 4.17847 2.29599 4.16043 2.29025 4.03218C2.2828 3.91881 2.29312 3.87415 2.34245 3.78912C2.41414 3.66688 2.56211 3.58471 2.70693 3.58328C2.78751 3.58328 2.80845 3.57297 2.84286 3.51314C2.93262 3.35654 3.18928 3.29986 3.38514 3.39548L3.49125 3.44615L3.54344 3.39548C3.61513 3.32992 3.75851 3.2718 3.85258 3.2718C4.0407 3.2718 4.30653 3.48795 4.30653 3.63996C4.30653 3.82176 4.14078 3.85325 3.97646 3.70266C3.86749 3.60132 3.81214 3.59072 3.7674 3.66229C3.74504 3.69665 3.79866 3.76078 4.11984 4.08428C4.44103 4.40635 4.49924 4.47506 4.49924 4.53604C4.4967 4.58278 4.47677 4.62689 4.44335 4.65972C4.40993 4.69256 4.36543 4.71175 4.31858 4.71353C4.26036 4.71353 4.16487 4.62994 3.7241 4.19164C3.27445 3.74417 3.19243 3.6726 3.15659 3.69522C3.05937 3.75648 3.09235 3.80114 3.618 4.32733C3.90333 4.61362 4.13791 4.86698 4.13791 4.89103C4.13791 4.94027 4.09318 5.03131 4.0559 5.05507C4.02531 5.06848 3.99204 5.07465 3.95868 5.07311C3.89731 5.07454 3.80325 4.98951 3.30312 4.49166C2.80128 3.99353 2.71152 3.91308 2.67567 3.93541C2.57702 3.99811 2.61 4.04134 3.18211 4.61534C3.4944 4.9271 3.75565 5.20594 3.7631 5.23572C3.77945 5.28954 3.7436 5.38344 3.696 5.41608C3.66441 5.42949 3.63021 5.43565 3.59592 5.43411C3.53455 5.43411 3.45712 5.36712 3.04331 4.95401C2.64441 4.55579 2.55179 4.47391 2.50103 4.47849C2.35764 4.49481 2.4084 4.55894 3.14913 5.30013C3.79149 5.94284 3.87351 6.03388 3.87351 6.10087C3.87416 6.12547 3.86862 6.14983 3.85739 6.17174C3.84617 6.19364 3.82963 6.21239 3.80927 6.22626C3.69428 6.3173 3.64954 6.2964 3.35962 6.01613C3.21165 5.87442 3.05937 5.73729 3.01894 5.71181C2.94581 5.66715 2.76056 5.64768 2.72614 5.68347C2.7141 5.69377 2.98739 5.98178 3.33266 6.32303C3.90764 6.89102 3.97331 6.94942 4.14221 7.02987C4.29781 7.10722 4.46918 7.14772 4.64301 7.14821C4.81683 7.14871 4.98843 7.10919 5.14447 7.03273C5.62682 6.80313 5.89438 6.24544 5.76275 5.73987C5.69708 5.48793 5.61478 5.36712 5.28327 5.02558C4.90101 4.6348 4.81268 4.52745 4.71862 4.33965C4.61395 4.12951 4.56921 3.9251 4.56921 3.67002C4.56921 3.39405 4.5976 3.26894 4.72005 3.011C4.83648 2.76508 5.07995 2.50713 5.32055 2.3743C5.79257 2.11178 6.414 2.13411 6.8648 2.42812C6.95456 2.48624 7.27861 2.79056 7.68181 3.19451C8.28087 3.79399 8.34941 3.87157 8.34941 3.93999C8.34941 4.1026 8.21635 4.28296 8.06866 4.32018C8.01332 4.33506 8.02393 4.34995 8.27485 4.60503C8.4211 4.75275 8.55703 4.91222 8.57797 4.96146C8.64823 5.13008 8.61668 5.29383 8.48821 5.4281C8.42254 5.49681 8.41365 5.52057 8.41193 5.6577C8.41049 5.77851 8.39702 5.82919 8.34912 5.89789C8.3113 5.95379 8.26065 5.99986 8.2014 6.03228C8.14214 6.06469 8.07599 6.08252 8.00844 6.08427C7.91582 6.08427 7.89804 6.09314 7.85158 6.16328C7.74691 6.32446 7.47505 6.38086 7.29897 6.27665L7.21094 6.22455L7.14813 6.28581C7.00934 6.41865 6.78508 6.4364 6.61503 6.32761C6.47767 6.24115 6.37615 6.12034 6.37615 6.04419C6.37615 5.9772 6.47336 5.86669 6.53301 5.86669C6.58979 5.86669 6.66607 5.91135 6.75268 5.99208C6.83928 6.07396 6.91413 6.07396 6.92589 5.99065C6.93191 5.94599 6.86022 5.86096 6.57029 5.5701C6.26546 5.26291 6.20724 5.19277 6.20724 5.13323C6.20656 5.09998 6.21271 5.06696 6.22531 5.03618C6.25829 4.98694 6.35091 4.95258 6.40741 4.96747C6.43723 4.97491 6.68959 5.20766 6.96603 5.48335C7.24391 5.76076 7.48738 5.98722 7.50975 5.98722C7.57112 5.98722 7.61127 5.92595 7.58288 5.87385C7.5694 5.85008 7.33482 5.60989 7.06296 5.33849C6.6374 4.91508 6.56857 4.83606 6.56857 4.77337C6.56718 4.73961 6.57335 4.70596 6.58664 4.67489C6.61216 4.63767 6.70163 4.59301 6.75239 4.59301C6.77476 4.59301 7.05551 4.85381 7.37669 5.17302C7.96514 5.75761 8.00844 5.79025 8.06981 5.69349C8.09218 5.6577 8.0116 5.56666 7.51262 5.0671C6.99729 4.55121 6.92875 4.47363 6.92875 4.40664C6.92875 4.36054 6.94969 4.31273 6.98267 4.28296C7.09164 4.18018 7.12462 4.20108 7.65486 4.72728C8.1567 5.22684 8.20144 5.25948 8.26281 5.16415C8.28517 5.12836 8.18366 5.01814 7.56079 4.39461C6.88258 3.71469 6.83355 3.65943 6.83355 3.58042C6.83355 3.46104 6.90237 3.40435 7.03515 3.41351C7.05895 3.41494 7.20233 3.53576 7.35031 3.68033C7.49971 3.8249 7.66088 3.9606 7.70877 3.9815C7.80283 4.02015 7.9118 4.02616 7.95826 3.99639C8.00299 3.96805 6.76329 2.7499 6.60212 2.66488C6.46394 2.59042 6.31195 2.54498 6.15552 2.53136C5.99908 2.51774 5.84151 2.53623 5.6925 2.58568C5.54349 2.63513 5.40619 2.71451 5.28906 2.81891C5.17193 2.92332 5.07744 3.05056 5.01141 3.19279C4.9337 3.35826 4.92337 3.4075 4.91276 3.62078C4.90387 3.82204 4.91133 3.88474 4.95463 4.01299C5.03235 4.24116 5.09945 4.33506 5.44759 4.69006C5.82412 5.07483 5.89581 5.16271 5.9913 5.36855C6.26029 5.94112 6.14673 6.6033 5.7031 7.04447C5.36557 7.38285 4.90559 7.54088 4.44992 7.47847V7.47876Z" fill="#3D0F00"/>
</svg>
