<svg width="16" height="14" viewBox="0 0 16 14" fill="none" xmlns="http://www.w3.org/2000/svg">
<path d="M15.7286 6.49599H9.29614C9.1278 6.46245 8.95103 6.42891 8.76417 6.39537C8.4965 6.34673 8.39044 6.32661 8.24567 6.2981C7.38205 6.1304 6.86187 5.96269 6.44774 5.72456C5.85684 5.38076 5.56897 4.91455 5.56897 4.2974C5.56897 3.6769 5.82486 3.16205 6.30969 2.80485C6.78779 2.45267 7.46791 2.26652 8.27597 2.26652C9.1985 2.26652 9.9106 2.50801 10.3938 2.98429C10.6395 3.22578 10.8197 3.52262 10.9291 3.86641C10.951 3.93516 10.9762 4.03411 11.0015 4.16492C11.0166 4.24542 11.089 4.30243 11.1681 4.30243H12.3937C12.488 4.30243 12.5637 4.22529 12.5637 4.13305V4.11628C12.5519 4.00225 12.5418 3.91336 12.5301 3.84796C12.4072 3.11845 12.0587 2.47783 11.525 1.9982C10.7776 1.319 9.67829 0.961792 8.34836 0.961792C7.13122 0.961792 6.03529 1.26533 5.26258 1.8154C4.83162 2.12397 4.49829 2.50634 4.27608 2.95075C4.04881 3.40522 3.93434 3.93013 3.93434 4.50871C3.93434 5.00343 4.03029 5.42269 4.22557 5.79164C4.3653 6.05493 4.55553 6.28636 4.79963 6.49599H0.914217C0.840145 6.49599 0.779541 6.55636 0.779541 6.63015V7.63637C0.779541 7.71016 0.840145 7.77053 0.914217 7.77053H8.20695C8.2423 7.77724 8.2726 7.78395 8.30627 7.79066C8.82646 7.89463 9.13958 7.96507 9.42745 8.04556C9.81465 8.15457 10.1109 8.26861 10.3567 8.40613C10.9594 8.74488 11.254 9.23122 11.254 9.89868C11.254 10.4907 10.9931 11.0189 10.52 11.3879C10.0066 11.7887 9.24732 11.9983 8.3231 11.9983C7.58743 11.9983 6.96456 11.8558 6.46794 11.5791C5.97805 11.3057 5.64136 10.9116 5.46291 10.4135C5.44945 10.3766 5.4343 10.3263 5.41746 10.2626C5.39726 10.1888 5.32824 10.1368 5.25417 10.1368H3.91245C3.81818 10.1368 3.74242 10.214 3.74242 10.3062V10.323C3.74579 10.3615 3.74916 10.3934 3.75252 10.4186C3.86195 11.2369 4.26261 11.9078 4.94273 12.4109C5.73563 12.9945 6.85176 13.3031 8.17159 13.3031C9.58906 13.3031 10.7776 12.971 11.6092 12.3421C12.0301 12.0252 12.3533 11.6344 12.5705 11.185C12.7893 10.7305 12.9021 10.214 12.9021 9.65048C12.9021 9.11718 12.8045 8.6711 12.6024 8.28538C12.5048 8.09755 12.3819 7.92482 12.2355 7.76885H15.7286C15.8027 7.76885 15.8633 7.70848 15.8633 7.63469V6.62847C15.8629 6.59318 15.8485 6.55949 15.8233 6.53469C15.7981 6.50989 15.7641 6.49599 15.7286 6.49599Z" fill="black" fill-opacity="0.85"/>
</svg>
