<svg width="25" height="25" viewBox="0 0 25 25" fill="none" xmlns="http://www.w3.org/2000/svg">
<g clip-path="url(#clip0_342_28458)">
<path d="M2.5 3.71362H22.5C23.55 3.71362 24.5 4.66362 24.5 5.71362V19.7136C24.5 20.7636 23.55 21.7136 22.5 21.7136H2.5C1.45 21.7136 0.5 20.7636 0.5 19.7136V5.71362C0.5 4.66362 1.45 3.71362 2.5 3.71362ZM14.5 6.71362V7.71362H22.5V6.71362H14.5ZM14.5 8.71362V9.71362H22.5V8.71362H14.5ZM14.5 10.7136V11.7136H21.5V10.7136H14.5ZM8.5 14.6236C6.5 14.6236 2.5 15.7136 2.5 17.7136V18.7136H14.5V17.7136C14.5 15.7136 10.5 14.6236 8.5 14.6236ZM8.5 6.71362C7.70435 6.71362 6.94129 7.02969 6.37868 7.5923C5.81607 8.15491 5.5 8.91797 5.5 9.71362C5.5 10.5093 5.81607 11.2723 6.37868 11.8349C6.94129 12.3976 7.70435 12.7136 8.5 12.7136C9.29565 12.7136 10.0587 12.3976 10.6213 11.8349C11.1839 11.2723 11.5 10.5093 11.5 9.71362C11.5 8.91797 11.1839 8.15491 10.6213 7.5923C10.0587 7.02969 9.29565 6.71362 8.5 6.71362Z" fill="black"/>
</g>
<defs>
<clipPath id="clip0_342_28458">
<rect width="24" height="24" fill="white" transform="translate(0.5 0.713623)"/>
</clipPath>
</defs>
</svg>
