<svg width="10" height="7" viewBox="0 0 10 7" fill="none" xmlns="http://www.w3.org/2000/svg">
<path d="M9.0676 0.791094C8.76567 0.924655 8.44133 1.0149 8.10035 1.05569C8.45218 0.845527 8.71539 0.514756 8.84088 0.125095C8.51034 0.321101 8.14857 0.459068 7.77131 0.532997C7.51761 0.262578 7.18159 0.0833396 6.81539 0.0231101C6.4492 -0.0371194 6.07334 0.0250296 5.74615 0.199908C5.41897 0.374787 5.15877 0.65261 5.00596 0.990246C4.85314 1.32788 4.81626 1.70644 4.90104 2.06714C4.23127 2.03357 3.57605 1.85978 2.97792 1.55705C2.37978 1.25432 1.85209 0.829416 1.42909 0.309914C1.28446 0.558987 1.20129 0.847767 1.20129 1.15532C1.20113 1.43218 1.26942 1.70481 1.40012 1.94901C1.53081 2.1932 1.71986 2.40142 1.9505 2.55518C1.68302 2.54668 1.42145 2.47453 1.18755 2.34473V2.36639C1.18752 2.75471 1.32207 3.13107 1.56837 3.43163C1.81466 3.73218 2.15753 3.93841 2.5388 4.01533C2.29067 4.08236 2.03053 4.09224 1.77802 4.0442C1.88559 4.37833 2.09513 4.6705 2.3773 4.87983C2.65947 5.08916 3.00015 5.20516 3.35164 5.2116C2.75497 5.67921 2.01807 5.93286 1.25951 5.93174C1.12513 5.93178 0.990875 5.92394 0.857422 5.90828C1.62741 6.40252 2.52373 6.66482 3.43915 6.6638C6.53794 6.6638 8.23197 4.1016 8.23197 1.87943C8.23197 1.80724 8.23016 1.73432 8.22691 1.66213C8.55642 1.42424 8.84085 1.12965 9.06687 0.792177L9.0676 0.791094Z" fill="#3D0F00"/>
</svg>
