<svg width="11" height="14" viewBox="0 0 11 14" fill="none" xmlns="http://www.w3.org/2000/svg">
<path d="M10.4234 12.0287H0.396133C0.325428 12.0287 0.267578 12.0857 0.267578 12.1561V13.1756C0.267578 13.246 0.325428 13.3031 0.396133 13.3031H10.4234C10.4941 13.3031 10.552 13.246 10.552 13.1756V12.1561C10.552 12.0857 10.4941 12.0287 10.4234 12.0287ZM5.40977 10.7543C6.52498 10.7543 7.5727 10.2999 8.36331 9.47659C9.15393 8.65328 9.5878 7.55833 9.5878 6.39463V1.16301C9.5878 1.05234 9.50103 0.961792 9.39497 0.961792H8.43081C8.32475 0.961792 8.23797 1.05234 8.23797 1.16301V6.39463C8.23797 8.02113 6.9685 9.3458 5.40977 9.3458C3.85104 9.3458 2.58156 8.02113 2.58156 6.39463V1.16301C2.58156 1.05234 2.49479 0.961792 2.38873 0.961792H1.42457C1.31851 0.961792 1.23174 1.05234 1.23174 1.16301V6.39463C1.23174 7.55833 1.66722 8.6516 2.45622 9.47659C3.24523 10.3016 4.29456 10.7543 5.40977 10.7543Z" fill="black" fill-opacity="0.85"/>
</svg>
