<svg width="12" height="12" viewBox="0 0 12 12" fill="none" xmlns="http://www.w3.org/2000/svg">
<path d="M6.14984 0.0800781H5.16317C5.07547 0.0800781 5.03161 0.12393 5.03161 0.211634V5.37519H0.131556C0.0438519 5.37519 0 5.41904 0 5.50674V6.49341C0 6.58112 0.0438519 6.62497 0.131556 6.62497H5.03161V11.7885C5.03161 11.8762 5.07547 11.9201 5.16317 11.9201H6.14984C6.23754 11.9201 6.28139 11.8762 6.28139 11.7885V6.62497H11.1822C11.2699 6.62497 11.3138 6.58112 11.3138 6.49341V5.50674C11.3138 5.41904 11.2699 5.37519 11.1822 5.37519H6.28139V0.211634C6.28139 0.12393 6.23754 0.0800781 6.14984 0.0800781Z" fill="black" fill-opacity="0.85"/>
</svg>
