<svg width="15" height="13" viewBox="0 0 15 13" fill="none" xmlns="http://www.w3.org/2000/svg">
<path d="M13.8977 1.3046H4.57454C4.5043 1.3046 4.44683 1.36631 4.44683 1.44173V2.40161C4.44683 2.47702 4.5043 2.53873 4.57454 2.53873H13.8977C13.9679 2.53873 14.0254 2.47702 14.0254 2.40161V1.44173C14.0254 1.36631 13.9679 1.3046 13.8977 1.3046ZM13.8977 6.17255H4.57454C4.5043 6.17255 4.44683 6.23425 4.44683 6.30967V7.26955C4.44683 7.34496 4.5043 7.40667 4.57454 7.40667H13.8977C13.9679 7.40667 14.0254 7.34496 14.0254 7.26955V6.30967C14.0254 6.23425 13.9679 6.17255 13.8977 6.17255ZM13.8977 11.0405H4.57454C4.5043 11.0405 4.44683 11.1022 4.44683 11.1776V12.1375C4.44683 12.2129 4.5043 12.2746 4.57454 12.2746H13.8977C13.9679 12.2746 14.0254 12.2129 14.0254 12.1375V11.1776C14.0254 11.1022 13.9679 11.0405 13.8977 11.0405ZM0.998535 1.92167C0.998535 2.04772 1.02166 2.17254 1.06659 2.289C1.11151 2.40545 1.17737 2.51127 1.26038 2.6004C1.3434 2.68954 1.44195 2.76024 1.55042 2.80848C1.65888 2.85672 1.77513 2.88154 1.89254 2.88154C2.00994 2.88154 2.12619 2.85672 2.23466 2.80848C2.34312 2.76024 2.44168 2.68954 2.52469 2.6004C2.60771 2.51127 2.67356 2.40545 2.71849 2.289C2.76341 2.17254 2.78654 2.04772 2.78654 1.92167C2.78654 1.79561 2.76341 1.6708 2.71849 1.55434C2.67356 1.43788 2.60771 1.33207 2.52469 1.24293C2.44168 1.1538 2.34312 1.0831 2.23466 1.03486C2.12619 0.98662 2.00994 0.961792 1.89254 0.961792C1.77513 0.961792 1.65888 0.98662 1.55042 1.03486C1.44195 1.0831 1.3434 1.1538 1.26038 1.24293C1.17737 1.33207 1.11151 1.43788 1.06659 1.55434C1.02166 1.6708 0.998535 1.79561 0.998535 1.92167ZM0.998535 6.78961C0.998535 6.91566 1.02166 7.04048 1.06659 7.15694C1.11151 7.27339 1.17737 7.37921 1.26038 7.46834C1.3434 7.55748 1.44195 7.62818 1.55042 7.67642C1.65888 7.72466 1.77513 7.74948 1.89254 7.74948C2.00994 7.74948 2.12619 7.72466 2.23466 7.67642C2.34312 7.62818 2.44168 7.55748 2.52469 7.46834C2.60771 7.37921 2.67356 7.27339 2.71849 7.15694C2.76341 7.04048 2.78654 6.91566 2.78654 6.78961C2.78654 6.66356 2.76341 6.53874 2.71849 6.42228C2.67356 6.30582 2.60771 6.20001 2.52469 6.11087C2.44168 6.02174 2.34312 5.95104 2.23466 5.9028C2.12619 5.85456 2.00994 5.82973 1.89254 5.82973C1.77513 5.82973 1.65888 5.85456 1.55042 5.9028C1.44195 5.95104 1.3434 6.02174 1.26038 6.11087C1.17737 6.20001 1.11151 6.30582 1.06659 6.42228C1.02166 6.53874 0.998535 6.66356 0.998535 6.78961ZM0.998535 11.6575C0.998535 11.7836 1.02166 11.9084 1.06659 12.0249C1.11151 12.1413 1.17737 12.2472 1.26038 12.3363C1.3434 12.4254 1.44195 12.4961 1.55042 12.5444C1.65888 12.5926 1.77513 12.6174 1.89254 12.6174C2.00994 12.6174 2.12619 12.5926 2.23466 12.5444C2.34312 12.4961 2.44168 12.4254 2.52469 12.3363C2.60771 12.2472 2.67356 12.1413 2.71849 12.0249C2.76341 11.9084 2.78654 11.7836 2.78654 11.6575C2.78654 11.5315 2.76341 11.4067 2.71849 11.2902C2.67356 11.1738 2.60771 11.0679 2.52469 10.9788C2.44168 10.8897 2.34312 10.819 2.23466 10.7707C2.12619 10.7225 2.00994 10.6977 1.89254 10.6977C1.77513 10.6977 1.65888 10.7225 1.55042 10.7707C1.44195 10.819 1.3434 10.8897 1.26038 10.9788C1.17737 11.0679 1.11151 11.1738 1.06659 11.2902C1.02166 11.4067 0.998535 11.5315 0.998535 11.6575Z" fill="black" fill-opacity="0.85"/>
</svg>
