<svg width="21" height="20" viewBox="0 0 21 20" fill="none" xmlns="http://www.w3.org/2000/svg">
<path fill-rule="evenodd" clip-rule="evenodd" d="M18.5 4.71362H14.5V2.71362C14.5 1.60362 13.61 0.713623 12.5 0.713623H8.5C7.39 0.713623 6.5 1.60362 6.5 2.71362V4.71362H2.5C1.39 4.71362 0.51 5.60362 0.51 6.71362L0.5 17.7136C0.5 18.8236 1.39 19.7136 2.5 19.7136H18.5C19.61 19.7136 20.5 18.8236 20.5 17.7136V6.71362C20.5 5.60362 19.61 4.71362 18.5 4.71362ZM12.5 4.71362H8.5V2.71362H12.5V4.71362ZM2.5 14.2136C2.5 13.9375 2.72386 13.7136 3 13.7136H18C18.2761 13.7136 18.5 13.9375 18.5 14.2136C18.5 14.4898 18.2761 14.7136 18 14.7136H3C2.72386 14.7136 2.5 14.4898 2.5 14.2136ZM3 15.7136C2.72386 15.7136 2.5 15.9375 2.5 16.2136C2.5 16.4898 2.72386 16.7136 3 16.7136H16C16.2761 16.7136 16.5 16.4898 16.5 16.2136C16.5 15.9375 16.2761 15.7136 16 15.7136H3Z" fill="black"/>
</svg>
